<svg xmlns="http://www.w3.org/2000/svg" xmlns:xlink="http://www.w3.org/1999/xlink" width="400" zoomAndPan="magnify" viewBox="0 0 300 299.999988" height="400" preserveAspectRatio="xMidYMid meet" version="1.0"><defs><g/><clipPath id="341d151c41"><rect x="0" width="300" y="0" height="288"/></clipPath></defs><g transform="matrix(1, 0, 0, 1, 0, 12)"><g clip-path="url(#341d151c41)"><g fill="#7c3aed" fill-opacity="1"><g transform="translate(61.103077, 6.430206)"><g><path d="M 133.34375 119.4375 C 139.957031 118.550781 145.085938 116.222656 148.734375 112.453125 C 152.378906 108.691406 154.457031 103.609375 154.96875 97.203125 C 155.925781 85.203125 151.128906 74.769531 140.578125 65.90625 C 130.023438 57.039062 116.195312 51.925781 99.09375 50.5625 C 80.601562 49.09375 64.96875 52.523438 52.1875 60.859375 C 39.40625 69.191406 32.453125 80.390625 31.328125 94.453125 C 30.722656 102.085938 31.945312 109.359375 35 116.265625 C 38.050781 123.171875 42.289062 128.367188 47.71875 131.859375 C 51.5625 134.492188 55.421875 136.394531 59.296875 137.5625 C 63.179688 138.738281 65.125 139.328125 65.125 139.328125 C 65.007812 140.804688 62.203125 142.28125 56.703125 143.75 C 51.210938 145.226562 44.972656 145.6875 37.984375 145.125 C 22.367188 143.882812 10.128906 137.550781 1.265625 126.125 C -7.585938 114.707031 -11.328125 100.363281 -9.953125 83.09375 C -8.128906 60.15625 2.316406 42.679688 21.390625 30.671875 C 40.460938 18.660156 65.410156 13.878906 96.234375 16.328125 C 125.015625 18.609375 148.050781 27.78125 165.34375 43.84375 C 182.644531 59.90625 190.410156 79.082031 188.640625 101.375 C 187.597656 114.519531 183.765625 124.988281 177.140625 132.78125 C 170.523438 140.570312 162.570312 144.097656 153.28125 143.359375 C 147.207031 142.878906 142.234375 140.414062 138.359375 135.96875 C 134.492188 131.519531 132.796875 126.335938 133.265625 120.421875 Z M 133.34375 119.4375 "/></g></g></g><g fill="#7c3aed" fill-opacity="1"><g transform="translate(60.738, 146.974852)"><g><path d="M 77.25 1.140625 C 77.539062 2.203125 75.390625 3.769531 70.796875 5.84375 C 66.210938 7.925781 62.335938 10.359375 59.171875 13.140625 C 52.648438 18.878906 48.367188 25.242188 46.328125 32.234375 C 44.296875 39.234375 44.453125 47.101562 46.796875 55.84375 C 49.066406 64.289062 52.65625 70.425781 57.5625 74.25 C 62.46875 78.082031 68.070312 79.15625 74.375 77.46875 C 83.757812 74.945312 89.28125 62.476562 90.9375 40.0625 L 91.234375 37.34375 C 92.628906 19.382812 96.195312 6.003906 101.9375 -2.796875 C 107.675781 -11.597656 116.414062 -17.578125 128.15625 -20.734375 C 141.695312 -24.367188 153.925781 -22.644531 164.84375 -15.5625 C 175.769531 -8.476562 183.273438 2.660156 187.359375 17.859375 C 190.585938 29.890625 191.191406 41.796875 189.171875 53.578125 C 187.160156 65.359375 184.046875 71.816406 179.828125 72.953125 C 178.453125 73.316406 176.429688 73.320312 173.765625 72.96875 C 171.109375 72.613281 167.789062 71.898438 163.8125 70.828125 C 160.125 69.972656 157.1875 68.972656 155 67.828125 C 152.820312 66.691406 151.566406 65.515625 151.234375 64.296875 C 151.210938 64.210938 153.101562 59.398438 156.90625 49.859375 C 160.71875 40.316406 161.625 31.828125 159.625 24.390625 C 158.101562 18.722656 155.222656 14.5 150.984375 11.71875 C 146.742188 8.945312 142.082031 8.242188 137 9.609375 C 132.269531 10.878906 128.835938 13.816406 126.703125 18.421875 C 124.566406 23.023438 123.070312 31.894531 122.21875 45.03125 C 121.070312 65.0625 117.4375 80.046875 111.3125 89.984375 C 105.1875 99.929688 95.648438 106.644531 82.703125 110.125 C 66.941406 114.363281 52.804688 112.347656 40.296875 104.078125 C 27.785156 95.804688 19.125 82.71875 14.3125 64.8125 C 9.90625 48.40625 10.597656 33.910156 16.390625 21.328125 C 22.179688 8.753906 31.78125 0.671875 45.1875 -2.921875 C 52.269531 -4.828125 59.238281 -5.164062 66.09375 -3.9375 C 72.957031 -2.707031 76.675781 -1.015625 77.25 1.140625 Z M 77.25 1.140625 "/></g></g></g></g></g></svg>